<?xml version="1.0" standalone="no"?>
<!DOCTYPE svg PUBLIC "-//W3C//DTD SVG 20010904//EN"
 "http://www.w3.org/TR/2001/REC-SVG-20010904/DTD/svg10.dtd">
<svg version="1.0" xmlns="http://www.w3.org/2000/svg"
 width="1024.000000pt" height="1024.000000pt" viewBox="0 0 1024.000000 1024.000000"
 preserveAspectRatio="xMidYMid meet">
<metadata>
Created by potrace 1.15, written by Peter Selinger 2001-2017
</metadata>
<g transform="translate(0.000000,1024.000000) scale(0.100000,-0.100000)"
fill="#000000" stroke="none">
<path d="M8649 9468 c-6 -11 -14 -58 -17 -104 l-5 -83 -39 -15 c-21 -9 -46
-16 -56 -16 -23 0 -134 -37 -200 -66 -60 -27 -86 -65 -61 -89 25 -25 159 -3
312 52 21 7 43 11 48 8 5 -4 9 -24 9 -46 0 -23 7 -69 17 -103 21 -82 8 -114
-55 -133 -24 -6 -72 -26 -108 -43 -49 -23 -64 -35 -60 -46 3 -9 6 -18 6 -20 0
-8 79 -4 102 5 13 5 54 12 90 16 63 7 66 6 73 -16 9 -31 33 -90 45 -109 6 -8
14 -25 20 -37 14 -33 87 -110 136 -143 24 -16 67 -33 96 -39 29 -5 54 -14 56
-20 2 -7 35 -11 87 -11 75 0 87 3 114 26 17 14 31 32 31 40 0 23 -57 41 -153
49 -68 6 -100 14 -145 37 -73 38 -74 39 -119 106 -81 121 -84 182 -11 182 16
0 48 9 70 20 23 11 49 20 58 20 10 0 35 13 58 29 31 23 39 35 35 51 -8 29 -30
36 -52 16 -10 -9 -34 -16 -53 -16 -20 0 -52 -7 -71 -15 -20 -8 -59 -15 -86
-15 -58 0 -56 -3 -65 114 -3 39 -11 73 -18 77 -9 6 -7 14 7 31 29 34 37 38 77
38 20 0 39 4 42 9 3 5 34 12 68 16 35 4 66 12 70 19 5 6 8 2 8 -11 0 -27 3
-27 33 -10 32 18 36 27 25 53 -18 38 -66 47 -205 40 -109 -7 -124 -6 -129 9
-10 24 -10 96 -1 133 l9 32 -41 0 c-31 0 -43 -5 -52 -22z"/>
<path d="M2430 9098 c-135 -3 -294 -11 -355 -16 -60 -6 -125 -11 -143 -11 -26
-1 -37 -7 -50 -31 -11 -19 -25 -30 -40 -30 -12 0 -39 -9 -59 -20 -21 -11 -47
-20 -58 -20 -11 0 -42 -7 -69 -15 -27 -8 -70 -15 -95 -15 -25 -1 -57 -7 -71
-15 -14 -8 -39 -14 -55 -15 -17 0 -48 -9 -70 -20 -22 -11 -53 -20 -70 -20 -16
0 -39 -7 -49 -15 -11 -8 -27 -15 -36 -15 -20 0 -143 -37 -185 -55 -60 -26
-141 -55 -154 -55 -7 0 -25 -6 -39 -14 -15 -7 -43 -21 -62 -29 -148 -64 -452
-223 -458 -239 -2 -4 -8 -8 -13 -8 -6 0 -55 -30 -110 -67 -55 -38 -108 -72
-118 -78 -58 -34 -71 -52 -71 -99 l0 -47 28 15 c16 8 43 28 61 45 18 17 37 31
42 31 6 0 22 9 37 19 106 74 316 197 437 255 44 21 87 42 95 47 8 5 22 12 30
15 8 3 28 12 43 20 16 7 33 14 38 14 10 0 105 41 141 61 10 5 26 9 36 9 9 0
34 9 55 20 20 11 46 20 58 20 11 0 30 5 41 11 22 12 88 30 183 51 28 6 55 17
60 24 6 6 40 14 76 17 37 2 73 8 80 13 18 11 128 32 239 45 47 5 105 15 130
21 75 17 285 26 680 27 305 1 370 4 351 14 -36 18 -36 34 1 40 44 6 229 -4
248 -14 9 -4 118 -9 244 -10 125 -1 248 -6 274 -11 26 -5 85 -13 132 -19 47
-5 102 -16 123 -24 22 -9 68 -15 115 -14 69 1 73 2 42 11 -19 5 -40 14 -46 19
-12 9 -115 35 -209 51 -82 14 -85 15 -85 32 0 11 26 15 119 21 146 9 251 0
311 -27 25 -11 68 -21 95 -23 98 -6 211 -23 254 -39 24 -9 60 -16 80 -16 20 0
42 -5 49 -12 6 -6 30 -14 54 -18 24 -4 66 -15 93 -25 101 -34 111 -37 150 -45
22 -5 58 -15 80 -24 22 -8 51 -15 65 -16 14 0 34 -7 44 -15 11 -8 31 -15 45
-15 24 0 175 -55 234 -85 16 -8 36 -15 45 -15 9 -1 35 -9 57 -20 22 -11 45
-19 50 -20 6 0 39 -14 75 -31 36 -17 85 -41 110 -53 24 -11 66 -33 93 -48 51
-30 68 -35 49 -16 -7 7 -12 20 -12 30 0 23 52 25 70 3 7 -8 16 -15 21 -15 12
0 102 -63 162 -113 52 -45 57 -62 26 -101 -28 -36 -18 -43 26 -17 48 28 73 27
87 -4 6 -14 17 -25 24 -25 7 0 22 -12 33 -26 25 -32 58 -29 53 5 -2 13 1 33 6
45 6 12 13 29 16 39 5 17 7 17 38 1 55 -29 86 -55 99 -85 14 -34 25 -37 34 -9
4 13 -1 34 -14 56 -12 19 -21 37 -21 40 0 10 80 3 127 -11 40 -12 57 -13 80
-4 l28 12 -30 8 c-16 4 -48 14 -70 22 -22 8 -69 18 -104 22 -73 8 -131 29
-131 48 0 20 115 67 164 67 24 0 60 7 79 15 28 12 80 15 230 15 115 0 197 -4
203 -10 5 -5 37 -15 69 -21 33 -6 70 -17 82 -25 12 -8 32 -14 44 -14 11 0 33
-7 47 -14 15 -8 45 -22 67 -31 48 -20 268 -128 275 -135 3 -3 38 -25 78 -49
40 -24 92 -58 115 -75 23 -17 52 -36 64 -43 25 -13 164 -116 203 -150 71 -61
86 -73 98 -73 7 0 15 -6 18 -13 2 -7 48 -49 101 -93 197 -161 422 -400 647
-684 6 -8 29 -44 50 -80 22 -36 44 -69 50 -75 6 -5 29 -46 50 -90 21 -44 47
-97 57 -118 10 -21 19 -45 19 -55 0 -9 7 -26 15 -36 8 -11 15 -30 15 -43 0
-13 6 -36 14 -51 17 -32 37 -165 43 -281 4 -74 3 -83 -10 -72 -9 6 -18 34 -22
62 -4 29 -11 47 -17 43 -7 -4 -8 -36 -3 -88 3 -44 6 -94 6 -111 -1 -16 -4
-156 -6 -310 -3 -154 -11 -305 -17 -335 -5 -30 -14 -80 -18 -110 -4 -30 -13
-68 -19 -84 -6 -16 -16 -49 -22 -74 -5 -24 -21 -68 -34 -97 -14 -28 -25 -59
-25 -68 0 -10 -5 -17 -10 -17 -6 0 -16 -12 -23 -27 -42 -97 -232 -330 -326
-401 -92 -70 -193 -132 -215 -132 -9 0 -16 -6 -16 -14 0 -15 -57 -28 -89 -19
-19 5 -21 13 -21 82 0 42 -9 118 -20 170 -11 52 -20 122 -20 155 0 34 -5 77
-11 96 -5 19 -14 82 -20 139 -5 57 -13 109 -19 115 -5 7 -12 47 -16 91 -3 44
-13 94 -20 110 -7 17 -15 57 -18 90 -2 33 -16 114 -31 180 -15 66 -31 143 -35
170 -12 74 -49 241 -60 270 -6 15 -10 41 -10 58 0 18 -7 53 -15 80 -8 26 -22
70 -31 97 -15 48 -14 80 4 80 4 0 21 -27 37 -60 17 -32 35 -58 40 -56 23 6 15
58 -17 112 -18 30 -46 79 -63 108 -33 57 -87 141 -144 224 -20 28 -41 61 -46
71 -6 10 -16 25 -23 33 -6 8 -9 18 -5 22 4 3 -3 15 -15 26 -22 21 -29 40 -14
40 5 0 29 -24 53 -52 24 -29 66 -75 93 -103 39 -40 47 -45 41 -25 -4 14 -11
27 -14 30 -3 3 -15 22 -25 42 -17 32 -107 146 -196 248 -17 19 -56 72 -87 118
-30 45 -59 82 -64 82 -5 0 -9 6 -9 13 0 12 -25 49 -112 166 -18 24 -37 52 -43
61 -54 92 -282 391 -344 451 -9 8 -32 34 -52 56 -53 58 -217 195 -269 222 -25
14 -47 28 -50 32 -3 5 -36 11 -73 15 -58 6 -67 5 -67 -10 0 -9 8 -16 20 -16
12 0 37 -17 58 -37 20 -21 48 -47 62 -58 99 -78 136 -111 224 -200 110 -112
206 -225 206 -245 0 -7 16 -32 35 -56 19 -23 35 -47 35 -53 0 -6 9 -20 20 -31
11 -11 20 -29 20 -40 0 -13 7 -20 20 -20 11 0 29 -10 39 -22 76 -89 194 -235
199 -247 3 -8 26 -42 51 -76 25 -34 54 -75 63 -91 10 -16 22 -36 27 -44 5 -8
27 -44 48 -80 21 -36 52 -86 70 -112 18 -26 33 -51 33 -54 0 -4 18 -33 40 -66
23 -32 45 -70 50 -84 5 -13 13 -24 18 -24 5 0 14 -18 21 -40 6 -22 16 -40 21
-40 6 0 10 -11 10 -24 0 -22 18 -109 55 -261 8 -33 17 -76 19 -95 3 -19 9 -53
15 -75 31 -127 51 -229 51 -263 0 -22 6 -55 14 -74 8 -18 18 -63 21 -98 4 -36
13 -87 21 -114 8 -27 14 -68 14 -92 0 -23 7 -61 15 -84 8 -23 15 -72 15 -109
1 -36 8 -84 16 -106 8 -22 18 -92 22 -155 4 -63 11 -120 15 -126 4 -7 11 -79
16 -160 5 -82 15 -162 22 -179 9 -22 12 -171 13 -580 0 -483 -1 -557 -16 -605
-9 -30 -17 -89 -18 -130 0 -41 -7 -106 -15 -145 -7 -38 -17 -104 -21 -145 -3
-41 -11 -78 -17 -82 -6 -3 -13 -42 -17 -85 -3 -43 -11 -88 -18 -100 -7 -12
-12 -32 -12 -46 0 -33 -40 -159 -56 -176 -11 -12 -15 -10 -24 13 -5 15 -10 40
-10 56 0 16 -6 44 -14 62 -15 35 -31 95 -46 168 -6 25 -16 61 -24 80 -7 19
-21 62 -31 95 -45 157 -72 217 -113 252 -25 21 -26 24 -13 58 7 20 10 39 7 42
-13 13 17 33 40 27 23 -6 24 -4 24 38 0 24 -6 53 -14 64 -8 11 -16 43 -19 70
-2 27 -9 59 -15 71 -7 12 -12 28 -12 35 0 8 -9 31 -20 53 -11 22 -20 45 -20
53 0 8 -6 26 -13 40 -8 15 -21 43 -29 62 -72 162 -140 291 -162 305 -38 25
-49 10 -22 -33 12 -20 35 -66 51 -102 15 -36 41 -93 56 -128 16 -34 29 -70 29
-80 0 -9 8 -33 18 -52 11 -19 22 -56 25 -82 6 -45 5 -48 -18 -54 -14 -3 -35
-4 -48 -1 -34 9 -208 67 -244 83 -18 8 -48 20 -65 28 -86 36 -217 101 -256
127 -24 16 -45 29 -47 29 -2 0 -41 25 -85 55 -44 30 -84 55 -88 55 -4 1 -23
14 -42 30 -19 17 -38 30 -43 30 -8 0 -28 15 -84 60 -7 6 -17 10 -23 10 -5 0
-10 5 -10 10 0 6 -9 14 -19 18 -11 4 -34 19 -53 34 -18 15 -51 41 -73 59 -22
17 -58 47 -80 67 -22 20 -78 69 -125 109 -141 118 -498 500 -565 603 -18 28
-75 104 -122 165 -49 62 -74 98 -99 138 -16 27 -36 59 -44 72 -40 61 -108 182
-114 203 -4 12 -11 22 -15 22 -8 0 -36 62 -45 102 -3 15 -12 33 -19 40 -17 17
-47 125 -47 171 0 49 -17 56 -29 11 -12 -44 5 -209 25 -241 8 -12 14 -35 14
-51 0 -32 123 -283 185 -377 21 -33 46 -72 55 -87 30 -53 93 -144 124 -179 17
-20 75 -93 129 -162 139 -177 416 -457 614 -620 235 -195 529 -373 798 -484
212 -88 407 -152 465 -153 54 -1 61 -17 54 -131 -3 -57 -12 -126 -20 -153 -8
-27 -14 -69 -14 -93 0 -24 -6 -59 -14 -77 -7 -18 -17 -62 -21 -97 -4 -35 -14
-76 -21 -91 -8 -15 -14 -45 -14 -68 0 -23 -6 -53 -14 -68 -7 -15 -16 -51 -19
-81 -4 -30 -13 -61 -22 -71 -8 -9 -15 -32 -15 -51 0 -19 -6 -46 -14 -60 -7
-14 -16 -42 -20 -62 -4 -20 -13 -49 -21 -64 -8 -15 -15 -34 -15 -41 0 -13 -24
-61 -90 -177 -21 -38 -48 -89 -60 -111 -23 -47 -37 -56 -80 -47 -19 3 -30 1
-30 -6 0 -6 -1 -14 -1 -18 -1 -5 16 -17 36 -28 21 -11 42 -27 45 -35 4 -8 18
-38 30 -67 13 -28 36 -66 51 -83 25 -27 33 -30 64 -24 48 9 76 0 113 -36 32
-31 37 -46 25 -88 -5 -20 -10 -23 -36 -18 -47 10 -58 -7 -40 -59 8 -24 21 -49
29 -56 8 -6 14 -22 14 -34 0 -12 6 -28 14 -34 16 -13 29 -94 27 -171 0 -30 6
-94 14 -143 19 -112 20 -299 1 -335 -8 -15 -19 -38 -25 -52 -33 -71 -74 -131
-126 -185 -31 -33 -75 -88 -75 -96 0 -23 -78 -39 -240 -49 -95 -6 -178 -14
-184 -18 -6 -3 -87 -9 -181 -13 -210 -9 -399 -25 -423 -37 -9 -5 -35 -13 -57
-17 -22 -3 -56 -15 -75 -26 -50 -27 -117 -49 -175 -59 -74 -13 -176 -37 -212
-50 -29 -11 -36 -9 -80 22 -54 37 -81 54 -103 64 -8 4 -22 13 -30 20 -17 14
-90 54 -210 114 -47 23 -92 46 -100 51 -8 5 -26 14 -40 20 -14 6 -32 15 -40
20 -8 5 -44 23 -80 40 -36 16 -77 36 -92 44 -14 8 -34 15 -45 15 -10 0 -27 7
-37 15 -11 8 -29 15 -40 15 -12 0 -30 7 -40 15 -11 8 -32 15 -48 15 -15 0 -45
9 -65 20 -21 11 -47 20 -59 20 -12 0 -41 7 -64 15 -23 8 -57 15 -75 15 -18 0
-50 7 -71 16 -25 11 -73 18 -134 19 -52 1 -113 7 -135 13 -22 6 -150 13 -291
15 -137 2 -256 7 -263 11 -6 4 -60 12 -118 17 -59 5 -112 14 -119 19 -6 6 -57
15 -113 19 -77 7 -107 14 -131 31 -16 12 -30 25 -30 29 0 5 -23 37 -50 71 -28
35 -53 72 -55 84 -3 12 -4 273 -2 581 4 614 8 665 64 781 23 48 26 65 19 87
-6 15 -15 27 -21 27 -18 0 -98 -43 -123 -66 -12 -11 -35 -27 -50 -35 -21 -11
-189 -120 -344 -224 -8 -5 -33 -22 -56 -37 -22 -15 -56 -43 -75 -61 -42 -43
-85 -53 -96 -23 -31 82 -43 137 -46 207 -2 44 -9 87 -15 94 -6 8 -10 40 -9 72
1 32 -3 76 -9 98 -6 22 -16 82 -22 134 -11 87 -47 190 -62 175 -4 -3 -9 21
-12 53 -3 32 -11 81 -17 108 -5 28 -14 79 -18 115 -5 36 -13 76 -18 90 -6 14
-13 58 -17 98 -4 40 -14 89 -22 108 -11 26 -15 78 -15 194 -1 87 2 167 5 178
10 31 40 20 47 -17 4 -18 12 -38 18 -44 6 -6 11 -17 11 -24 0 -22 162 -359
216 -448 26 -44 31 -75 11 -75 -34 0 -50 -27 -53 -89 -4 -65 10 -87 40 -62 10
8 16 9 21 1 3 -5 26 -10 50 -10 50 0 63 -14 118 -122 40 -77 63 -90 53 -29 -3
23 -12 50 -18 60 -6 10 -8 26 -5 35 6 14 29 16 189 16 123 0 206 -5 253 -15
38 -8 99 -15 134 -15 41 0 70 -5 80 -14 9 -7 50 -18 91 -24 41 -5 111 -20 155
-32 44 -12 97 -26 117 -31 20 -5 54 -20 74 -34 41 -28 50 -30 60 -13 4 7 -10
28 -38 52 -55 49 -87 104 -94 160 l-6 41 101 85 c95 79 119 110 88 110 -8 0
-34 -15 -58 -32 -75 -55 -150 -95 -201 -105 -27 -5 -107 16 -161 43 -16 8 -61
17 -100 20 -40 4 -78 12 -86 18 -10 7 -127 12 -369 13 -195 2 -356 4 -357 5
-49 77 -46 52 -48 425 -1 351 4 465 21 486 5 7 13 43 17 82 4 38 13 79 21 90
8 10 14 39 14 62 0 23 6 62 14 85 8 24 17 63 21 88 4 25 11 50 16 56 5 6 12
33 15 60 4 27 11 57 16 67 8 16 37 114 57 197 5 19 14 49 20 65 5 17 24 71 41
120 43 124 108 294 125 328 8 16 15 33 15 38 0 10 33 90 50 120 5 9 12 33 15
53 4 20 11 36 16 36 5 0 14 12 19 28 6 15 14 36 19 47 5 11 18 40 29 65 11 25
23 55 27 68 3 12 11 22 16 22 5 0 9 4 9 10 0 10 60 146 85 190 7 14 41 79 74
145 34 66 69 134 78 150 9 17 20 37 24 45 5 8 20 38 34 67 14 28 29 54 34 58
5 3 12 19 16 35 4 16 12 33 18 37 7 5 23 29 37 56 25 47 107 185 158 264 15
23 54 85 87 137 38 60 66 95 78 96 9 0 17 -8 17 -17 1 -10 1 -99 0 -198 0 -99
5 -207 11 -240 5 -33 14 -109 19 -170 5 -60 14 -126 19 -145 5 -19 13 -62 17
-95 3 -33 11 -66 17 -73 5 -7 14 -53 18 -103 5 -50 13 -97 18 -103 6 -7 15
-43 20 -82 21 -141 33 -200 47 -227 8 -16 14 -48 14 -71 0 -23 6 -51 14 -62 8
-11 18 -38 21 -60 4 -21 12 -47 17 -57 5 -10 13 -39 18 -65 8 -45 32 -124 50
-167 5 -11 12 -31 15 -45 4 -14 12 -38 19 -55 18 -41 36 -92 50 -141 6 -23 16
-47 22 -55 6 -8 21 -41 34 -74 13 -33 29 -67 37 -76 7 -8 13 -23 13 -32 0 -9
15 -47 34 -84 19 -38 59 -117 89 -178 30 -60 64 -128 77 -150 13 -22 35 -60
49 -85 14 -25 39 -65 56 -90 17 -25 35 -52 39 -60 9 -20 26 -47 59 -95 48 -72
62 -90 84 -115 13 -14 23 -28 23 -32 0 -4 18 -28 40 -55 23 -26 58 -68 78 -93
69 -83 183 -204 235 -250 29 -25 67 -60 85 -79 18 -18 61 -53 95 -78 34 -25
70 -54 79 -64 10 -10 43 -35 75 -55 32 -21 60 -41 63 -44 3 -3 28 -19 55 -35
28 -15 52 -31 55 -35 6 -8 80 -42 130 -60 51 -18 86 -23 115 -16 39 10 29 22
-15 18 -22 -2 -46 1 -53 6 -7 6 -38 24 -68 40 -160 84 -296 187 -432 326 -99
102 -135 140 -252 275 -22 25 -43 48 -47 49 -5 2 -8 9 -8 17 0 7 -7 19 -17 26
-18 16 -183 236 -183 245 0 4 -18 28 -40 54 -22 26 -40 52 -40 56 0 9 -39 71
-77 124 -10 14 -28 45 -41 70 -12 25 -31 59 -41 75 -10 17 -39 73 -66 125 -27
52 -54 102 -60 110 -6 8 -22 40 -35 70 -12 30 -38 86 -56 124 -19 37 -34 77
-34 87 0 11 -6 22 -14 25 -7 3 -16 22 -20 44 -3 21 -13 41 -22 44 -9 4 -13 13
-10 24 3 10 -3 35 -14 57 -11 22 -20 47 -20 57 0 10 -6 21 -14 24 -7 3 -16 26
-20 51 -3 25 -10 51 -15 57 -4 6 -18 45 -31 86 -12 41 -30 102 -40 135 -44
144 -50 169 -50 192 0 13 -5 34 -12 46 -6 12 -17 51 -24 87 -6 36 -17 79 -22
95 -13 37 -30 134 -42 240 -5 44 -14 94 -20 110 -7 17 -14 76 -17 131 -5 97
-5 102 16 113 25 14 28 53 6 94 -8 15 -17 42 -19 60 -21 127 -10 787 12 795
10 3 10 7 1 18 -14 17 -15 114 -1 140 23 46 34 96 23 107 -19 19 -44 -5 -70
-69 -13 -32 -31 -77 -41 -99 -29 -63 -50 -145 -50 -191 0 -24 -6 -47 -15 -54
-8 -6 -17 -22 -21 -33 -4 -12 -22 -40 -41 -62 -48 -56 -53 -63 -53 -72 0 -4
-18 -28 -40 -53 -49 -55 -50 -55 -80 -105 -14 -22 -48 -73 -77 -114 -29 -40
-53 -79 -53 -87 0 -7 -6 -17 -14 -21 -7 -4 -24 -28 -36 -52 -12 -25 -29 -51
-36 -59 -8 -7 -14 -18 -14 -24 0 -5 -13 -27 -28 -47 -15 -20 -33 -47 -40 -61
-37 -74 -69 -128 -84 -144 -10 -10 -18 -26 -18 -36 0 -10 -4 -21 -9 -24 -4 -3
-21 -32 -37 -63 -16 -32 -31 -60 -35 -63 -3 -3 -27 -48 -53 -100 -26 -52 -51
-102 -55 -110 -30 -57 -121 -249 -121 -254 0 -6 -35 -84 -90 -202 -16 -34 -32
-74 -36 -90 -4 -16 -12 -36 -20 -44 -7 -8 -16 -28 -20 -45 -4 -16 -13 -39 -20
-50 -8 -11 -14 -29 -14 -40 0 -12 -7 -30 -15 -41 -8 -10 -15 -30 -15 -44 0
-14 -9 -38 -20 -55 -11 -16 -20 -40 -20 -52 0 -12 -6 -37 -14 -55 -8 -18 -24
-67 -36 -108 -12 -41 -26 -88 -32 -105 -6 -16 -14 -51 -18 -77 -5 -26 -13 -55
-18 -65 -5 -10 -12 -47 -16 -82 -3 -36 -10 -68 -16 -71 -5 -3 -12 -39 -15 -80
-4 -41 -13 -105 -21 -143 -11 -51 -14 -152 -14 -425 0 -196 -4 -363 -9 -371
-8 -12 -12 -12 -25 -2 -9 8 -16 21 -16 30 0 9 -6 25 -14 36 -7 11 -16 37 -20
58 -4 20 -11 37 -16 37 -5 0 -11 10 -15 23 -7 24 -27 76 -57 144 -10 23 -18
48 -18 55 0 7 -7 22 -15 32 -8 11 -15 29 -15 41 0 11 -6 30 -14 41 -8 11 -17
37 -21 57 -4 20 -13 41 -21 48 -8 6 -14 26 -14 43 0 17 -6 40 -14 51 -7 11
-16 37 -20 57 -4 20 -13 50 -21 65 -8 15 -15 42 -15 59 0 17 -7 37 -15 44 -8
7 -15 23 -15 37 0 13 -6 39 -14 58 -8 19 -18 56 -22 82 -3 26 -13 60 -20 75
-8 15 -14 43 -14 63 0 20 -6 51 -14 69 -7 18 -17 62 -21 97 -3 35 -10 78 -15
94 -5 17 -14 98 -21 180 -6 83 -13 170 -15 195 -2 25 1 96 6 158 26 297 32
349 41 377 7 20 7 38 0 55 -8 22 -10 22 -11 5 0 -11 -8 -38 -16 -60 -14 -37
-33 -129 -54 -254 -5 -29 -14 -77 -22 -105 l-13 -51 -5 45 c-3 25 -2 77 2 115
4 39 12 129 17 200 6 72 17 173 26 225 12 68 14 106 7 130 l-9 35 -7 -30 c-4
-16 -14 -52 -22 -79 -7 -26 -14 -57 -14 -68 0 -11 -6 -56 -14 -101 -38 -215
-46 -306 -45 -507 0 -113 5 -230 10 -260 5 -30 14 -102 19 -160 4 -58 13 -118
18 -135 6 -16 13 -56 16 -89 4 -32 13 -68 21 -79 8 -12 15 -42 15 -67 0 -25 7
-58 15 -73 8 -15 17 -45 21 -65 4 -20 10 -41 14 -47 4 -5 10 -31 14 -56 4 -26
13 -55 21 -65 11 -15 15 -64 15 -229 1 -115 5 -241 11 -280 5 -38 13 -126 18
-195 5 -69 14 -138 20 -153 6 -16 14 -61 17 -100 4 -40 13 -82 20 -94 8 -12
14 -45 14 -72 0 -28 6 -70 14 -93 8 -24 18 -68 22 -98 3 -30 13 -70 20 -89 8
-18 14 -47 14 -63 0 -17 7 -42 15 -56 8 -15 19 -47 24 -72 5 -25 14 -63 20
-85 6 -22 11 -53 11 -68 0 -15 9 -48 20 -73 12 -24 18 -49 15 -54 -3 -5 4 -35
15 -67 11 -31 20 -69 20 -83 1 -14 7 -36 15 -50 8 -14 15 -38 15 -55 0 -16 9
-48 20 -70 11 -22 19 -50 20 -63 0 -12 7 -39 15 -59 25 -60 20 -77 -41 -129
-30 -27 -62 -61 -70 -77 -19 -36 -77 -39 -95 -4 -7 12 -15 24 -19 27 -10 8
-114 135 -130 159 -8 13 -27 40 -41 61 -15 20 -35 52 -44 71 -10 19 -21 36
-25 39 -4 3 -10 14 -13 25 -16 54 -45 125 -54 137 -6 7 -13 45 -17 85 -7 82
-14 105 -30 100 -19 -6 -20 -202 -1 -239 8 -17 15 -40 15 -50 0 -11 6 -32 14
-46 27 -54 66 -137 66 -145 0 -11 161 -232 183 -252 7 -5 41 -43 77 -84 134
-154 265 -273 495 -450 50 -38 98 -78 108 -88 36 -37 47 -50 47 -57 0 -12 120
-154 135 -159 20 -8 27 4 12 22 -30 35 -27 78 5 66 27 -11 110 -112 124 -151
11 -33 11 -39 -4 -50 -18 -13 -127 -9 -147 6 -16 13 -621 12 -710 0 -44 -6
-120 -15 -170 -20 -49 -4 -106 -13 -125 -19 -19 -6 -52 -11 -73 -11 -21 0 -54
-7 -74 -15 -19 -8 -45 -15 -58 -15 -12 0 -48 -10 -81 -22 -49 -18 -81 -22
-189 -22 -112 0 -139 3 -192 23 -35 13 -68 30 -74 37 -6 8 -18 14 -25 14 -32
0 -161 106 -199 163 -8 13 -34 43 -56 66 -36 39 -58 73 -90 141 -6 14 -17 37
-25 52 -8 14 -14 33 -14 42 0 9 -6 27 -14 39 -7 12 -17 47 -20 77 -4 30 -11
59 -16 65 -5 7 -14 56 -20 111 -6 54 -15 114 -20 133 -5 18 -9 176 -10 350 0
260 2 325 15 360 8 24 15 55 15 70 0 14 7 39 15 55 8 15 15 33 15 40 0 6 9 28
20 49 11 20 20 43 20 51 0 7 7 19 15 26 17 14 20 50 5 50 -12 0 -13 34 -1 74
21 71 107 479 119 562 2 18 -1 35 -7 38 -7 5 -11 -4 -11 -24 0 -18 -6 -46 -14
-63 -18 -44 -49 -157 -91 -337 -7 -30 -17 -68 -23 -85 -11 -32 -30 -106 -42
-170 -5 -22 -16 -53 -24 -70 -9 -16 -16 -38 -16 -47 0 -9 -6 -29 -14 -45 -22
-45 -38 -95 -43 -133 -7 -60 -13 -81 -22 -75 -5 3 -12 -14 -16 -37 -3 -24 -12
-56 -20 -73 -8 -16 -24 -57 -35 -90 -21 -57 -44 -114 -59 -144 -13 -27 -28
-22 -51 16 -23 40 -23 41 0 183 5 30 9 615 10 1300 1 685 5 1256 9 1270 l7 25
12 -22 c7 -12 12 -37 12 -56 0 -18 6 -56 14 -83 8 -27 18 -87 22 -134 3 -47
10 -91 14 -99 14 -26 19 84 10 219 -5 74 -14 315 -21 535 -10 332 -10 441 2
640 14 248 18 400 9 408 -13 11 -89 -6 -95 -21 -4 -10 -11 -132 -15 -272 -5
-140 -13 -295 -19 -345 -14 -126 -33 -637 -40 -1100 l-6 -390 -63 -65 c-35
-36 -76 -85 -90 -110 -15 -25 -32 -51 -39 -58 -7 -7 -16 -24 -19 -37 -3 -13
-12 -26 -20 -29 -8 -3 -14 -16 -14 -29 0 -14 -6 -30 -14 -36 -8 -7 -18 -25
-21 -41 -5 -22 -13 -30 -33 -32 -20 -2 -26 -8 -24 -22 2 -10 -6 -24 -17 -32
-12 -9 -22 -31 -26 -58 -4 -25 -13 -47 -21 -50 -21 -8 -21 -831 0 -839 8 -3
18 -23 21 -44 4 -21 13 -52 21 -70 8 -17 14 -34 14 -38 0 -3 16 -41 36 -83 20
-42 41 -90 49 -107 23 -56 35 -80 44 -95 5 -8 19 -36 31 -62 12 -27 26 -50 31
-54 12 -7 11 -41 -1 -49 -6 -4 -63 48 -127 114 -64 67 -120 121 -125 121 -4 0
-8 -60 -8 -134 l0 -135 52 -50 c97 -91 228 -169 266 -157 27 9 72 -13 72 -36
0 -10 -6 -18 -12 -19 -7 0 -36 -2 -65 -2 -61 -2 -93 -27 -123 -95 -17 -37 -19
-61 -16 -141 3 -53 11 -114 20 -136 8 -22 15 -53 16 -70 1 -71 152 -381 201
-411 5 -3 9 -21 9 -40 0 -42 16 -50 70 -36 22 5 42 6 45 1 3 -4 -1 -25 -10
-45 -20 -48 -21 -223 -1 -262 7 -15 16 -42 20 -61 3 -19 12 -42 20 -50 7 -9
19 -34 26 -56 17 -51 106 -187 159 -243 23 -24 39 -47 36 -53 -4 -5 17 -9 49
-9 50 0 56 2 56 21 0 11 4 18 9 15 4 -3 14 13 21 34 7 22 19 45 27 51 7 6 13
15 13 19 0 13 134 140 147 140 5 0 22 14 38 30 16 17 35 30 42 30 7 0 13 4 13
8 0 9 44 34 145 84 33 16 80 40 105 52 25 13 61 27 80 31 19 4 41 11 50 15 29
14 155 51 187 55 18 2 40 8 50 13 10 5 46 12 80 16 35 4 79 14 98 22 22 9 70
15 128 15 81 0 161 11 207 27 26 9 482 1 570 -10 93 -12 137 -14 279 -17 l95
-2 38 -42 38 -42 19 23 c11 12 21 27 23 34 3 8 10 7 27 -2 14 -7 39 -10 58 -7
45 8 122 -21 168 -62 21 -18 52 -33 75 -37 22 -4 40 -8 40 -11 0 -9 -56 -52
-67 -53 -7 0 -13 -3 -13 -7 0 -5 -17 -19 -37 -33 -36 -25 -44 -32 -140 -123
-82 -78 -79 -134 13 -212 30 -26 54 -53 54 -61 0 -11 20 -14 95 -14 103 0 118
10 71 48 -13 10 -31 35 -39 54 -9 20 -25 41 -36 48 -12 6 -19 15 -16 21 4 5
-1 9 -9 9 -9 0 -16 4 -16 9 0 13 40 61 52 61 6 0 27 16 47 35 97 94 170 158
203 182 35 24 41 25 80 13 24 -6 99 -18 168 -25 69 -8 154 -19 190 -24 36 -6
100 -11 142 -11 43 0 95 -6 115 -14 21 -8 67 -17 103 -20 62 -5 152 -36 165
-56 3 -6 -6 -14 -22 -20 -15 -5 -41 -16 -56 -25 -16 -8 -37 -15 -47 -15 -10 0
-22 -5 -26 -11 -3 -6 -27 -20 -53 -31 -76 -33 -84 -37 -126 -64 -22 -13 -47
-27 -56 -30 -22 -7 -48 -75 -42 -108 5 -26 7 -26 89 -26 66 0 84 3 84 14 0 8
-4 18 -10 21 -20 12 -9 33 27 54 33 18 120 61 268 133 50 24 109 47 155 59 35
9 122 -11 208 -47 18 -8 38 -14 44 -14 20 0 165 -71 211 -103 24 -16 28 -25
23 -48 -6 -34 6 -37 34 -9 17 17 18 23 8 46 -9 20 -9 27 2 34 17 10 31 5 94
-36 73 -47 78 -53 72 -80 l-6 -24 210 0 c180 0 210 2 210 15 0 8 6 15 13 16 6
0 42 2 79 5 60 5 67 3 73 -15 6 -19 14 -21 107 -21 91 0 100 2 93 18 -16 40
-11 47 45 57 30 5 60 13 66 17 6 4 44 8 85 9 41 1 100 11 131 21 32 10 86 18
121 18 35 0 68 5 74 11 25 25 683 35 703 11 6 -7 7 -10 4 -7 -7 5 -52 -92 -61
-133 -5 -22 -4 -22 85 -22 82 0 90 2 85 18 -2 10 3 24 11 31 9 8 16 19 16 25
0 7 13 25 29 40 28 27 30 27 89 16 99 -18 198 -76 189 -111 -5 -17 1 -19 63
-19 66 0 68 1 73 27 3 15 1 37 -3 48 -11 29 -76 95 -94 95 -8 0 -16 6 -19 14
-3 8 -21 19 -39 25 -18 7 -41 22 -50 35 -17 23 -16 24 22 49 22 14 49 29 62
33 12 3 43 20 69 35 25 16 51 29 56 29 6 0 16 7 23 15 7 8 20 15 29 15 9 0 28
8 41 17 14 10 31 18 39 20 8 1 28 8 45 16 94 44 144 69 171 86 17 10 50 29 74
43 23 13 41 29 40 34 -6 14 -118 6 -142 -11 -12 -8 -32 -15 -44 -15 -12 0 -42
-9 -65 -19 -87 -39 -116 -51 -126 -51 -6 0 -23 -6 -39 -14 -15 -8 -59 -29 -98
-47 -89 -42 -189 -107 -255 -166 -37 -33 -54 -43 -62 -35 -7 7 -12 68 -13 163
l-2 153 40 43 c22 24 36 43 31 44 -5 0 -22 2 -39 2 -36 2 -45 29 -19 58 10 11
19 32 20 47 1 15 3 30 3 35 2 12 29 8 45 -8 8 -8 26 -15 40 -15 15 0 26 -6 26
-14 0 -7 15 -16 33 -20 17 -3 46 -12 62 -20 72 -34 169 -46 367 -49 108 -1
199 1 203 4 14 15 -67 38 -155 44 -52 4 -112 14 -134 21 -21 8 -54 14 -72 14
-18 0 -48 6 -66 14 -18 8 -67 24 -108 36 -41 12 -82 26 -90 31 -8 5 -22 12
-30 15 -8 3 -22 10 -30 15 -8 5 -31 18 -50 28 -19 11 -59 41 -87 68 -43 39
-53 55 -53 81 0 37 -36 184 -55 227 -8 17 -16 56 -19 87 -2 32 -12 68 -20 80
-9 12 -16 36 -16 53 0 17 -7 40 -15 51 -8 10 -15 27 -15 36 0 33 -84 159 -142
214 -32 31 -58 60 -58 64 0 11 67 140 83 160 22 26 75 144 82 183 4 20 13 41
21 48 8 6 14 22 14 36 0 13 5 33 10 44 6 10 15 45 21 76 6 32 15 63 20 69 5 7
12 36 16 65 3 30 10 63 16 74 11 20 27 99 49 230 6 39 15 73 21 77 6 3 12 32
15 65 5 67 17 89 38 72 8 -6 14 -19 14 -28 0 -9 16 -65 35 -126 19 -60 35
-119 35 -130 0 -11 6 -32 13 -46 8 -14 17 -45 21 -68 3 -24 13 -56 22 -72 8
-16 12 -34 9 -40 -4 -5 3 -38 14 -72 11 -34 28 -89 36 -122 9 -33 25 -89 36
-125 20 -68 19 -110 -7 -162 -8 -15 -14 -37 -14 -50 0 -13 -7 -32 -15 -42 -18
-24 -20 -59 -2 -54 6 3 25 24 42 49 16 24 37 50 47 57 14 10 18 27 18 77 0 42
5 68 14 78 8 8 18 31 21 51 4 20 11 39 16 41 4 3 11 27 15 53 3 26 11 52 16
59 5 6 14 42 19 80 5 37 16 85 24 106 8 20 15 59 15 85 0 26 6 58 13 72 8 15
17 62 20 105 7 76 18 107 34 91 5 -4 11 -114 14 -244 4 -130 11 -253 17 -272
6 -19 13 -71 17 -115 4 -44 13 -102 21 -129 8 -27 14 -69 14 -93 0 -24 6 -56
14 -71 7 -15 17 -49 21 -77 4 -27 13 -62 21 -77 8 -15 14 -42 14 -61 0 -19 7
-40 15 -47 8 -7 15 -27 15 -45 0 -18 9 -42 20 -55 11 -13 20 -37 20 -56 0 -18
7 -39 15 -48 8 -8 15 -23 15 -33 0 -10 7 -27 15 -37 8 -11 15 -27 15 -36 0 -9
9 -27 20 -40 11 -13 20 -29 20 -36 0 -16 48 -112 60 -119 6 -3 10 -15 10 -26
0 -10 6 -19 14 -19 7 0 16 -8 20 -17 6 -21 24 -49 46 -73 31 -35 50 -60 50
-67 0 -4 10 -17 22 -30 94 -100 -240 132 -375 261 -130 124 -277 327 -277 381
0 10 -7 15 -17 13 -14 -2 -18 -15 -19 -56 -2 -28 1 -52 5 -52 4 0 13 -17 19
-37 17 -57 64 -127 202 -302 94 -120 228 -321 256 -384 11 -26 26 -53 32 -59
7 -7 12 -19 12 -27 0 -9 9 -29 20 -46 11 -16 20 -40 20 -53 0 -13 7 -36 15
-51 18 -35 37 -156 38 -236 0 -108 -27 -218 -77 -310 -31 -57 -24 -66 47 -63
58 3 62 5 65 28 2 14 10 32 17 40 7 8 16 29 20 45 4 17 13 44 20 60 16 36 19
236 5 310 -15 82 -34 151 -46 166 -6 8 -14 32 -17 54 -4 22 -11 41 -17 43 -5
2 -10 8 -10 13 0 10 -20 52 -85 179 -40 78 -28 90 37 38 70 -56 137 -96 267
-159 44 -21 67 -27 74 -20 13 13 -8 40 -41 52 -18 7 -23 15 -19 30 4 16 -6 33
-40 68 -38 39 -94 118 -140 196 -29 51 -163 326 -163 337 0 6 -6 19 -13 27 -7
9 -21 43 -32 76 -10 33 -27 77 -37 97 -10 21 -18 47 -18 58 0 11 -8 32 -17 47
-9 14 -20 46 -24 72 -11 62 -34 160 -47 193 -6 14 -14 55 -17 90 -4 34 -13 82
-21 106 -8 23 -14 71 -14 105 -1 34 -7 89 -15 122 -8 33 -15 110 -16 170 0 61
-5 135 -11 165 -5 30 -13 276 -16 546 -6 431 -9 492 -23 507 -13 13 -17 51
-23 209 -10 284 -13 266 41 273 42 5 191 77 266 127 76 51 252 228 304 306 52
78 48 71 122 221 4 8 13 17 19 19 18 6 15 -54 -3 -72 -8 -8 -15 -26 -15 -40 0
-24 -7 -42 -71 -169 -16 -31 -29 -62 -29 -68 0 -6 -10 -24 -22 -39 -13 -15
-45 -62 -72 -105 -26 -42 -59 -88 -72 -102 -46 -50 -25 -59 23 -10 125 125
246 338 327 572 19 55 37 117 41 137 4 21 13 42 21 49 8 7 14 30 14 55 0 24 6
63 14 86 12 39 40 374 40 488 0 74 -24 352 -34 395 -5 22 -14 91 -20 154 -5
62 -14 119 -19 125 -4 6 -12 29 -15 51 -14 80 -58 208 -87 255 -5 8 -12 22
-15 30 -10 26 -49 104 -56 115 -5 5 -39 58 -78 117 -38 59 -75 110 -81 113 -5
4 -14 18 -19 31 -5 13 -16 24 -25 24 -8 0 -15 6 -15 14 0 36 -386 433 -577
594 -18 15 -41 34 -51 43 -57 49 -259 203 -309 235 -32 21 -62 44 -66 51 -4 7
-14 13 -20 13 -7 0 -18 5 -25 12 -7 7 -38 27 -70 45 -31 18 -77 44 -102 58
-25 14 -52 29 -60 34 -8 5 -39 21 -69 36 -30 15 -62 31 -70 36 -34 18 -109 48
-161 64 -30 9 -69 23 -86 31 -17 8 -55 19 -85 24 -30 5 -74 13 -99 19 -25 6
-109 10 -187 11 -79 0 -143 3 -143 8 0 4 14 19 32 34 l33 27 -30 1 c-29 0
-112 -28 -167 -56 -14 -8 -34 -14 -45 -14 -10 0 -30 -6 -44 -14 -14 -7 -39
-16 -55 -20 -29 -7 -65 -22 -135 -58 -20 -10 -48 -18 -62 -18 -29 0 -162 51
-180 69 -6 6 -17 11 -24 11 -8 0 -26 9 -41 19 -54 38 -119 76 -200 117 -46 24
-89 47 -95 52 -7 4 -52 25 -102 46 -49 21 -103 44 -120 51 -37 16 -76 25 -135
31 -88 8 -190 27 -190 35 0 4 -8 10 -17 12 -10 3 -56 15 -103 27 -47 13 -102
29 -123 36 -20 8 -55 14 -77 14 -22 0 -57 6 -77 14 -21 8 -67 17 -102 20 -35
3 -69 11 -76 16 -7 6 -48 13 -91 17 -43 3 -96 12 -118 20 -21 7 -63 13 -93 13
-30 0 -81 7 -112 15 -31 8 -94 16 -141 19 -51 2 -97 10 -115 20 -26 14 -75 16
-338 16 -295 0 -310 -1 -335 -20 -23 -19 -35 -20 -146 -15 -67 3 -164 10 -216
15 -136 14 -271 16 -550 8z m-2024 -5173 c6 -16 2 -29 -18 -57 -10 -14 -9 -20
6 -31 17 -12 18 -52 17 -832 -1 -451 -1 -830 -1 -842 0 -13 -4 -23 -10 -23
-13 0 -44 34 -61 68 -8 15 -27 46 -42 69 -15 23 -32 56 -38 72 -6 17 -14 31
-19 31 -4 0 -17 22 -29 49 -11 28 -25 52 -30 55 -5 4 -19 27 -31 54 -12 26
-26 54 -31 62 -5 8 -14 26 -20 40 -6 14 -17 36 -24 50 -7 14 -18 62 -26 108
-15 98 -1 323 24 382 17 40 34 104 47 174 5 27 14 52 19 56 6 3 14 21 18 40 5
19 26 68 48 109 22 41 46 86 54 100 8 14 17 28 20 31 15 12 79 108 85 128 5
15 1 24 -14 32 l-20 11 22 39 c24 41 44 51 54 25z m2804 -1599 c0 -13 -6 -29
-14 -35 -26 -22 -48 -116 -57 -241 -14 -210 -30 -707 -27 -855 3 -161 -3 -171
-69 -112 -36 33 -104 153 -118 210 -4 14 -13 31 -21 38 -8 6 -14 18 -14 26 0
8 -8 31 -19 51 -45 90 -51 105 -51 122 0 10 -6 25 -13 32 -15 14 -57 128 -57
152 0 7 -6 19 -14 25 -7 6 -16 30 -20 52 -4 23 -13 51 -21 62 -8 12 -15 36
-15 55 0 34 8 44 93 110 23 18 86 68 139 112 53 44 101 80 107 80 5 0 14 6 18
13 4 7 34 33 66 56 31 24 57 47 57 51 0 7 17 15 43 19 4 0 7 -10 7 -23z m-703
-616 c8 -19 21 -49 29 -67 8 -17 14 -39 14 -50 1 -10 9 -36 20 -58 24 -50 24
-55 2 -55 -9 0 -51 33 -92 73 -105 101 -105 100 -89 137 8 16 19 30 25 30 6 0
17 6 23 14 21 26 53 14 68 -24z m-2033 -258 c5 -30 53 -102 67 -102 4 0 21 12
38 27 21 18 31 37 31 55 0 39 20 70 35 54 6 -6 15 -20 20 -31 9 -24 16 -132 9
-157 -5 -16 -8 -16 -27 -3 -13 8 -55 17 -94 20 l-71 5 -13 -37 c-27 -81 -18
-243 16 -277 15 -15 20 -57 9 -69 -9 -9 -44 11 -44 26 0 7 -16 36 -35 66 -19
29 -38 65 -41 79 -4 15 -12 38 -20 52 -7 14 -22 51 -34 82 l-22 58 19 37 c27
51 93 176 99 185 9 15 51 -37 58 -70z m415 -582 c28 -38 55 -70 61 -70 5 0 10
-6 10 -12 0 -13 67 -62 85 -63 6 0 10 -7 10 -15 0 -8 -6 -14 -13 -12 -7 1 -17
-10 -22 -24 -9 -21 -15 -25 -35 -20 -14 4 -25 2 -25 -4 0 -5 -15 -17 -32 -26
-50 -26 -167 -138 -168 -160 0 -6 -9 -19 -20 -29 -11 -10 -20 -23 -20 -30 0
-6 -5 -16 -11 -22 -33 -33 -107 170 -104 282 2 101 5 116 15 110 6 -3 10 0 10
7 0 7 12 23 28 36 47 38 96 72 103 72 5 0 19 11 33 25 14 14 29 25 34 25 5 0
33 -31 61 -70z m493 -252 c22 -25 17 -35 -25 -43 -63 -12 -147 -48 -178 -75
-9 -8 -40 -31 -69 -50 -28 -19 -64 -45 -80 -57 -15 -13 -33 -23 -40 -23 -17 0
19 47 85 110 32 30 72 69 89 87 64 66 96 82 151 77 33 -4 56 -12 67 -26z"/>
<path d="M4080 8784 c-19 -7 -42 -13 -52 -13 -27 -1 -118 -53 -118 -67 0 -16
36 -37 49 -30 15 10 338 -32 437 -55 29 -7 59 -9 70 -4 18 8 18 8 -1 13 -11 2
-33 10 -50 17 -16 8 -52 18 -80 24 -27 5 -68 14 -90 20 -22 6 -65 11 -96 11
-32 0 -63 6 -75 14 -19 14 -19 15 0 22 11 4 47 12 80 18 44 8 62 16 64 29 3
14 -4 17 -50 16 -29 -1 -69 -7 -88 -15z"/>
<path d="M1472 8257 c-34 -34 -62 -67 -62 -71 0 -5 -7 -16 -15 -25 -22 -23
-95 -138 -95 -151 0 -5 -4 -10 -9 -10 -4 0 -23 -30 -41 -67 -18 -38 -36 -70
-40 -73 -4 -3 -19 -30 -34 -60 -14 -30 -35 -68 -46 -85 -10 -16 -39 -68 -64
-115 -24 -47 -63 -119 -85 -160 -22 -41 -46 -86 -52 -100 -6 -14 -16 -32 -23
-40 -7 -8 -16 -28 -20 -44 -4 -16 -15 -30 -27 -33 -14 -4 -18 -11 -14 -24 4
-10 2 -26 -4 -36 -8 -16 -10 -15 -16 9 -4 14 -2 35 4 46 6 12 11 32 11 47 0
14 6 38 14 53 18 35 32 142 18 142 -6 0 -13 -19 -17 -42 -4 -23 -14 -48 -21
-56 -8 -7 -14 -23 -14 -35 0 -12 -7 -35 -15 -51 -8 -15 -15 -39 -15 -51 0 -13
-4 -25 -9 -27 -6 -1 -15 -25 -22 -53 -6 -27 -17 -66 -24 -85 -13 -36 -28 -90
-47 -170 -6 -25 -17 -54 -24 -65 -8 -11 -14 -31 -14 -45 0 -14 -6 -43 -14 -64
-18 -53 -11 -76 22 -70 35 6 68 50 116 152 8 17 19 32 24 32 5 0 15 14 22 31
7 17 18 36 24 42 12 13 63 115 92 185 10 23 21 42 25 42 5 0 11 16 15 35 3 19
12 39 20 46 8 6 14 19 14 28 0 9 7 25 15 35 8 11 15 30 15 43 0 12 9 27 20 33
11 6 20 21 20 35 0 13 4 26 9 30 6 3 21 31 36 63 14 31 30 64 35 72 5 8 24 43
41 78 17 34 35 62 40 62 5 0 9 9 9 19 0 11 16 47 35 81 19 34 35 64 35 67 0
12 110 143 150 178 80 71 82 91 8 60 -12 -5 -18 -3 -18 6 0 15 60 136 84 170
14 20 12 49 -3 49 -4 0 -35 -28 -69 -63z"/>
<path d="M6850 8256 c0 -6 40 -25 140 -65 30 -13 68 -29 83 -37 16 -8 35 -14
43 -14 8 0 14 -4 14 -10 0 -5 15 -18 34 -27 83 -42 167 -95 241 -152 44 -33
85 -64 90 -68 16 -12 101 -88 208 -187 54 -49 107 -96 118 -104 10 -7 19 -20
19 -28 0 -8 10 -19 23 -25 12 -6 47 -40 77 -75 30 -36 81 -93 115 -128 103
-108 132 -142 146 -168 8 -15 37 -51 64 -80 28 -30 55 -61 60 -69 15 -23 60
-87 106 -149 23 -30 50 -70 61 -87 11 -18 24 -33 29 -33 5 0 9 -6 9 -13 0 -8
15 -34 32 -58 18 -24 37 -51 43 -60 34 -56 96 -161 130 -223 22 -40 48 -83 58
-96 9 -14 17 -30 17 -37 0 -6 16 -42 35 -80 19 -37 35 -73 35 -79 0 -6 7 -17
15 -24 8 -7 15 -22 15 -34 0 -12 7 -31 15 -42 8 -10 15 -26 15 -34 0 -8 9 -32
20 -53 11 -20 20 -46 20 -57 0 -12 6 -31 14 -43 8 -12 17 -38 21 -57 4 -19 14
-44 21 -55 8 -11 14 -36 14 -55 0 -20 5 -41 11 -47 14 -14 40 -194 45 -323 8
-169 19 -193 35 -73 11 85 -7 353 -27 406 -8 20 -14 57 -14 81 0 23 -9 69 -20
101 -11 32 -20 68 -20 81 0 13 -4 25 -9 29 -6 3 -13 25 -17 50 -3 24 -12 50
-20 56 -8 6 -14 23 -14 36 0 14 -6 37 -14 51 -15 29 -77 160 -96 202 -6 14
-26 52 -45 85 -19 33 -45 80 -59 105 -23 44 -78 131 -113 180 -10 13 -21 32
-25 42 -4 10 -11 18 -17 18 -5 0 -12 8 -15 18 -8 21 -27 53 -43 72 -29 34 -83
111 -83 118 0 4 -12 18 -27 32 -14 14 -44 50 -67 80 -22 30 -58 76 -81 101
-22 25 -67 78 -100 118 -166 200 -548 562 -730 690 -186 132 -415 261 -463
261 -9 0 -30 7 -45 15 -30 15 -127 32 -127 21z"/>
<path d="M5808 8160 c4 -10 44 -57 90 -103 45 -46 82 -91 82 -100 0 -10 16
-23 37 -32 22 -9 77 -57 131 -113 147 -152 302 -319 302 -325 0 -3 31 -50 68
-104 38 -55 71 -107 75 -116 3 -9 11 -17 17 -17 5 0 10 -6 10 -13 0 -8 16 -36
35 -63 19 -27 35 -54 35 -60 0 -6 8 -18 18 -27 10 -9 28 -36 41 -59 12 -24 31
-56 41 -73 11 -16 23 -37 26 -45 4 -8 15 -24 24 -35 19 -22 36 -52 74 -131 14
-29 28 -54 33 -55 4 -2 21 -30 37 -62 16 -31 32 -60 37 -62 4 -3 10 -18 14
-34 3 -16 13 -32 21 -35 8 -3 14 -14 14 -25 0 -11 6 -26 13 -33 6 -7 23 -35
36 -63 14 -27 31 -56 38 -63 7 -7 13 -18 13 -23 0 -8 60 -143 80 -179 24 -42
100 -199 100 -205 0 -4 9 -20 21 -36 21 -30 68 -41 70 -16 4 42 -18 104 -71
197 -4 8 -43 85 -85 170 -42 85 -90 180 -107 210 -39 69 -144 267 -161 300 -6
14 -17 31 -24 38 -7 7 -13 17 -13 22 0 5 -6 15 -12 22 -18 20 -35 47 -57 94
-10 23 -24 45 -30 48 -6 4 -18 22 -26 39 -8 18 -20 41 -27 51 -7 11 -45 69
-85 130 -100 154 -194 291 -224 325 -29 33 -79 102 -79 109 0 25 -216 245
-285 291 -22 14 -44 31 -48 38 -4 7 -17 13 -29 13 -14 0 -62 41 -136 115 -111
111 -150 139 -134 95z"/>
<path d="M1372 6713 c-5 -10 -17 -58 -27 -108 -9 -49 -23 -107 -31 -128 -18
-49 -18 -92 1 -110 18 -19 135 -11 150 10 8 11 16 8 40 -17 16 -16 34 -30 40
-30 24 0 43 37 48 94 3 32 13 66 21 75 17 19 20 39 10 65 -9 23 -27 20 -52 -9
-12 -14 -26 -25 -32 -25 -5 0 -10 -6 -10 -13 0 -7 -7 -22 -15 -33 -14 -17 -15
-13 -9 53 8 84 -9 123 -51 123 -19 0 -25 5 -25 23 0 42 -41 63 -58 30z"/>
<path d="M5316 6032 c-24 -89 -33 -196 -47 -562 -10 -266 -9 -318 4 -410 9
-58 18 -156 20 -219 3 -70 9 -116 16 -120 7 -4 15 -54 19 -117 5 -60 14 -119
20 -131 7 -12 12 -40 12 -62 0 -23 9 -74 20 -113 11 -40 20 -87 20 -104 0 -19
6 -34 15 -38 10 -3 15 -19 15 -46 0 -22 6 -56 14 -74 7 -18 17 -51 21 -74 3
-22 13 -48 20 -59 8 -10 15 -32 15 -50 0 -18 6 -36 14 -40 7 -4 16 -21 19 -38
7 -40 32 -107 67 -180 16 -33 40 -85 54 -115 15 -30 37 -73 50 -95 13 -22 31
-53 40 -68 30 -55 199 -258 220 -266 6 -2 20 -11 31 -21 11 -10 33 -20 49 -24
34 -8 38 -14 -66 95 -67 70 -158 189 -158 207 0 5 -5 13 -12 20 -11 11 -30 57
-49 118 -5 18 -16 37 -24 44 -8 7 -15 22 -15 33 0 11 -6 28 -13 36 -7 9 -24
50 -37 91 -13 41 -29 84 -36 95 -6 11 -15 36 -19 55 -4 19 -10 40 -13 45 -15
25 -52 143 -52 166 0 14 -5 30 -11 36 -6 6 -17 40 -24 75 -28 130 -43 188 -52
200 -6 7 -13 44 -16 82 -4 38 -11 74 -17 80 -5 5 -10 24 -10 41 0 16 -9 72
-20 124 -11 52 -20 115 -20 141 0 26 -6 65 -14 87 -8 22 -17 91 -21 154 -4 63
-12 175 -20 249 -14 148 -11 493 5 600 13 90 19 196 11 209 -4 6 -15 -20 -25
-57z"/>
<path d="M6296 5954 c-3 -9 -6 -25 -6 -37 1 -54 67 -196 107 -226 28 -23 68
-28 78 -10 4 6 17 14 29 19 16 6 28 1 53 -23 27 -26 35 -28 48 -17 12 10 14
22 9 44 -4 17 -7 36 -7 43 0 7 -6 14 -13 17 -7 3 -15 18 -19 34 -3 17 -13 33
-21 36 -8 3 -14 10 -14 16 0 20 -47 62 -66 58 -14 -2 -21 -16 -27 -56 -7 -44
-11 -51 -23 -41 -8 6 -14 19 -14 29 0 9 -9 25 -20 35 -11 10 -20 25 -20 34 0
45 -60 81 -74 45z"/>
<path d="M3612 5587 c-90 -9 -93 -10 -76 -28 12 -14 31 -19 66 -19 27 0 62 -7
79 -15 35 -19 220 -18 226 1 2 6 -14 23 -36 38 -47 33 -108 38 -259 23z"/>
<path d="M7597 5429 c-22 -13 -22 -48 2 -101 11 -24 27 -63 36 -88 10 -25 23
-58 30 -75 29 -69 74 -209 85 -265 12 -61 40 -178 50 -215 5 -16 14 -68 20
-115 5 -47 15 -86 20 -88 6 -2 10 -27 10 -55 1 -43 3 -49 12 -33 15 27 -19
309 -57 466 -9 36 -21 88 -26 115 -6 28 -15 64 -21 80 -6 17 -15 48 -20 70 -5
22 -16 53 -24 68 -8 16 -14 41 -14 57 0 15 -6 33 -14 39 -7 6 -16 29 -20 51
-3 22 -10 40 -15 40 -5 0 -15 13 -23 29 -11 23 -17 27 -31 20z"/>
<path d="M6820 4856 c0 -20 22 -41 62 -56 18 -7 40 -19 48 -25 8 -7 28 -15 43
-19 16 -4 47 -18 69 -32 32 -21 42 -23 49 -13 5 9 0 22 -13 36 -26 28 -151
103 -172 103 -8 0 -18 5 -21 10 -10 16 -65 12 -65 -4z"/>
<path d="M9259 3913 c-7 -18 -6 -41 1 -72 21 -86 31 -156 26 -177 -7 -25 -55
-40 -161 -49 -92 -8 -139 -31 -143 -69 -2 -16 1 -33 7 -39 16 -16 163 -10 221
9 67 22 80 15 80 -40 0 -79 -16 -93 -64 -55 -33 26 -98 31 -146 12 -116 -47
-169 -206 -94 -285 58 -60 109 -71 194 -41 75 27 80 17 96 -180 4 -45 0 -92
-10 -135 -27 -118 -29 -186 -8 -212 26 -32 72 -21 95 23 17 32 39 153 39 217
0 88 -25 337 -38 377 -13 38 -13 47 0 71 23 44 56 174 56 222 0 49 13 70 42
70 10 0 43 16 73 36 44 28 56 40 53 57 -3 21 -8 22 -86 22 -99 1 -106 6 -115
93 -4 32 -13 72 -22 88 -8 16 -15 34 -15 41 0 18 -29 43 -51 43 -12 0 -23 -10
-30 -27z m-75 -602 c34 -36 31 -59 -13 -88 -83 -56 -148 8 -89 87 29 39 65 39
102 1z"/>
<path d="M2483 2693 c-17 -12 -20 -19 -13 -33 5 -10 14 -39 20 -66 17 -77 87
-204 111 -204 17 0 19 42 4 77 -38 87 -43 100 -49 133 -8 39 -33 97 -44 103
-4 3 -17 -2 -29 -10z"/>
<path d="M6240 2380 c-47 -5 -95 -6 -108 -3 -38 9 -90 -6 -97 -28 -9 -27 10
-47 48 -51 30 -3 32 -6 32 -40 0 -20 5 -41 10 -46 9 -8 147 -19 501 -41 108
-7 112 -8 155 -43 24 -19 60 -44 79 -54 19 -10 46 -27 59 -36 13 -10 38 -18
56 -18 18 0 38 -7 45 -15 16 -20 40 -2 40 29 0 24 -66 106 -85 106 -15 0 -70
69 -62 77 3 3 52 9 109 14 117 10 159 19 205 42 44 23 55 42 17 32 -16 -4
-111 -9 -210 -11 l-181 -4 -36 29 c-23 17 -54 31 -83 35 -26 3 -53 11 -61 18
-18 15 -310 20 -433 8z"/>
<path d="M9515 2081 c-14 -6 -23 -25 -33 -72 -17 -79 -33 -474 -21 -506 7 -18
16 -23 43 -23 35 0 46 12 46 51 0 10 4 19 9 19 11 0 21 160 22 364 2 179 -3
191 -66 167z"/>
<path d="M3509 1657 c-69 -33 -160 -148 -163 -207 0 -14 -8 -30 -16 -37 -12
-9 -16 -43 -18 -160 l-3 -148 33 -50 c24 -36 47 -57 84 -75 28 -14 58 -30 66
-37 24 -20 99 -28 109 -12 5 8 9 17 9 20 0 6 -72 39 -87 39 -5 0 -22 11 -37
25 -15 14 -24 25 -21 25 3 0 -1 13 -10 29 -40 79 -47 120 -35 205 7 44 15 101
19 126 4 28 11 44 19 43 7 -2 12 8 12 21 0 38 45 81 80 78 19 -2 32 3 38 15 9
16 27 18 131 21 l120 4 73 -63 c40 -34 75 -66 76 -71 2 -5 26 -20 52 -33 27
-14 51 -29 55 -35 3 -5 28 -19 55 -31 27 -12 55 -27 61 -35 6 -8 22 -14 36
-14 13 0 26 -7 29 -15 4 -8 13 -15 21 -15 16 0 52 -15 138 -56 28 -13 55 -24
62 -24 6 0 24 -6 40 -14 31 -15 108 -36 163 -44 19 -3 39 -11 45 -18 5 -7 35
-16 65 -18 30 -3 69 -12 86 -20 30 -15 102 -29 244 -46 106 -13 140 -21 140
-31 0 -5 11 -9 25 -9 18 0 25 -5 25 -20 0 -12 15 -29 40 -45 22 -14 40 -29 40
-33 0 -4 10 -19 23 -32 29 -33 87 -116 87 -125 0 -4 14 -23 31 -42 17 -20 28
-42 25 -50 -3 -8 0 -26 8 -41 7 -15 16 -47 20 -72 4 -29 15 -51 29 -62 21 -16
21 -17 3 -37 -16 -17 -31 -21 -83 -21 -96 0 -75 -17 32 -25 133 -10 190 0 248
42 26 19 47 38 47 43 0 5 13 11 29 15 37 8 76 65 86 125 4 25 13 57 21 71 16
32 9 65 -23 102 -12 16 -23 41 -23 56 0 20 -16 43 -62 89 -34 34 -66 62 -71
62 -5 0 -26 14 -47 30 -21 17 -41 30 -44 30 -3 0 -29 15 -59 33 -29 17 -61 37
-72 44 -30 18 -310 157 -385 191 -36 16 -87 40 -115 52 -27 13 -78 33 -112 45
-35 12 -68 27 -75 32 -7 5 -44 20 -83 32 -38 12 -83 28 -100 36 -16 7 -48 16
-70 20 -22 4 -46 12 -53 18 -7 5 -32 14 -55 18 -76 14 -182 39 -202 48 -11 5
-54 14 -95 20 -41 5 -100 15 -130 22 -45 9 -287 9 -515 0 -5 -1 -28 1 -50 4
-22 2 -52 -1 -66 -8z m667 -92 c16 -8 46 -15 66 -15 20 0 48 -4 62 -10 15 -5
54 -14 87 -19 34 -6 69 -17 79 -26 9 -8 31 -15 49 -15 18 0 47 -6 64 -13 18
-8 68 -26 112 -41 148 -51 262 -95 350 -136 82 -38 191 -88 236 -108 25 -11
51 -27 58 -36 7 -8 19 -12 26 -10 11 5 35 -23 35 -40 0 -12 -48 -5 -59 8 -18
21 -80 27 -112 10 -19 -10 -35 -12 -47 -6 -9 5 -42 12 -73 15 -31 3 -71 12
-87 21 -17 9 -49 16 -71 16 -21 0 -41 5 -43 11 -2 5 -24 13 -48 15 -25 3 -54
10 -65 15 -23 10 -125 46 -170 59 -47 14 -115 39 -146 55 -15 8 -37 15 -47 15
-11 0 -25 6 -31 14 -6 7 -25 16 -41 19 -36 8 -281 128 -317 156 -14 12 -32 21
-39 21 -16 0 -27 17 -19 30 10 16 159 12 191 -5z"/>
<path d="M7110 1621 c-14 -27 -13 -48 4 -79 8 -15 18 -44 21 -64 3 -21 10 -38
15 -38 6 0 10 -6 11 -12 0 -7 14 -24 30 -37 26 -20 34 -22 56 -12 l26 12 -22
23 c-25 27 -61 123 -61 164 0 51 -58 83 -80 43z"/>
<path d="M7352 1628 c-8 -8 -12 -48 -12 -113 0 -81 4 -110 20 -142 24 -50 36
-59 55 -43 20 17 19 75 -4 191 -23 122 -31 135 -59 107z"/>
<path d="M175 641 c-15 -25 -5 -128 17 -181 21 -48 34 -72 83 -152 20 -32 164
-204 204 -243 22 -22 41 -46 41 -52 0 -9 19 -13 60 -13 33 0 60 3 60 6 0 4
-60 68 -132 143 -126 130 -227 259 -242 309 -4 12 -11 22 -16 22 -11 0 -38 84
-42 129 -3 34 -20 51 -33 32z"/>
</g>
</svg>
